<svg xmlns="http://www.w3.org/2000/svg" width="0" height="0" class="hidden">
  <symbol viewBox="0 0 14 15" id="phone">
    <g clip-path="url(#clip0_2_116)">
      <path d="M13.6189 10.7746L11.6652 8.82085C10.9674 8.12308 9.7812 8.40222 9.50209 9.30928C9.29276 9.9373 8.595 10.2862 7.96701 10.1466C6.57148 9.79772 4.68752 7.98353 4.33863 6.51822C4.1293 5.89021 4.54796 5.19244 5.17595 4.98314C6.08305 4.70403 6.36215 3.51783 5.66439 2.82007L3.71064 0.866327C3.15243 0.377891 2.31511 0.377891 1.82668 0.866327L0.500926 2.19208C-0.824828 3.58761 0.640479 7.28576 3.91997 10.5653C7.19947 13.8448 10.8976 15.3799 12.2932 13.9843L13.6189 12.6586C14.1074 12.1003 14.1074 11.263 13.6189 10.7746Z" fill="currentColor"/>
    </g>
    <defs>
      <clipPath id="clip0_2_116">
        <rect width="14" height="14" fill="white" transform="translate(0 0.5)"/>
      </clipPath>
    </defs>
  </symbol>
  <symbol viewBox="0 0 20 21" id="arrow-r">
    <g clip-path="url(#clip0_2_156)">
      <path d="M19.5857 9.85046L1.01474 1.27924C0.719033 1.14496 0.366184 1.22496 0.160475 1.47924C-0.046663 1.73352 -0.0538057 2.09494 0.143332 2.35636L6.25033 10.499L0.143332 18.6417C-0.0538057 18.9031 -0.046663 19.2659 0.159046 19.5188C0.297614 19.6917 0.504752 19.7845 0.714747 19.7845C0.816173 19.7845 0.917599 19.7631 1.01331 19.7188L19.5843 11.1476C19.8386 11.0304 20 10.7776 20 10.499C20 10.2205 19.8386 9.9676 19.5857 9.85046Z" fill="currentColor"/>
    </g>
    <defs>
      <clipPath id="clip0_2_156">
        <rect width="20" height="20" fill="white" transform="translate(0 0.5)"/>
      </clipPath>
    </defs>
  </symbol>
  <symbol viewBox="0 0 10 11" id="angle-r">
    <g clip-path="url(#clip0_2_104)">
      <path d="M7.58656 5.22558L2.96126 0.613083C2.80972 0.462049 2.56437 0.462303 2.41308 0.613865C2.26191 0.765407 2.2623 1.01089 2.41386 1.16205L6.76384 5.50002L2.41371 9.83797C2.26216 9.98914 2.26177 10.2345 2.41292 10.386C2.48876 10.462 2.58812 10.5 2.68747 10.5C2.78658 10.5 2.88554 10.4623 2.96124 10.3868L7.58656 5.77443C7.65954 5.70181 7.7005 5.60299 7.7005 5.50002C7.7005 5.39705 7.65943 5.29834 7.58656 5.22558Z" fill="currentColor"/>
    </g>
    <defs>
      <clipPath id="clip0_2_104">
        <rect width="10" height="10" fill="white" transform="translate(0 0.5)"/>
      </clipPath>
    </defs>
  </symbol>
</svg>
